<!DOCTYPE svg PUBLIC "-//W3C//DTD SVG 20010904//EN" "http://www.w3.org/TR/2001/REC-SVG-20010904/DTD/svg10.dtd">
<svg version="1.0" xmlns="http://www.w3.org/2000/svg" width="512px" height="512px" viewBox="0 0 5120 5120" preserveAspectRatio="xMidYMid meet">
<g id="layer101" fill="#010101" stroke="none">
 <path d="M0 2560 l0 -2560 2560 0 2560 0 0 2560 0 2560 -2560 0 -2560 0 0 -2560z"/>
 </g>
<g id="layer102" fill="#d4d4d4" stroke="none">
 <path d="M0 2560 l0 -2560 2560 0 2560 0 0 2560 0 2560 -2560 0 -2560 0 0 -2560z m2600 1629 c45 -11 158 -15 167 -6 2 3 19 1 36 -4 18 -4 48 -11 67 -14 19 -3 53 -11 75 -17 22 -5 50 -12 62 -14 27 -5 160 -54 228 -84 72 -32 188 -104 275 -170 85 -65 310 -294 354 -361 16 -24 37 -55 46 -69 29 -44 127 -263 144 -322 9 -31 13 -64 9 -74 -4 -11 -2 -15 4 -11 11 7 38 -101 50 -198 4 -33 7 -172 7 -310 0 -248 0 -251 -32 -379 -59 -236 -145 -416 -281 -591 -69 -88 -247 -263 -317 -311 -38 -27 -51 -41 -44 -49 5 -6 47 -29 92 -50 72 -34 94 -39 192 -47 60 -4 113 -11 117 -15 4 -5 11 -20 14 -35 l7 -27 -89 4 c-89 4 -106 0 -250 -51 l-42 -15 72 -62 c40 -35 108 -85 152 -112 44 -27 91 -57 104 -67 13 -10 27 -15 32 -12 5 3 9 0 9 -5 0 -6 11 -11 25 -11 14 0 25 -4 25 -10 0 -5 16 -10 35 -10 34 0 47 -13 23 -23 -7 -3 2 -6 20 -6 29 -1 32 -4 27 -21 -5 -15 -3 -18 9 -14 8 3 12 12 9 20 -3 8 0 14 6 14 15 0 51 -41 57 -67 4 -13 10 -23 16 -23 5 0 7 -4 3 -9 -3 -5 -1 -12 5 -16 13 -8 63 -105 57 -111 -2 -2 -15 5 -28 17 -13 12 -41 35 -63 52 -21 18 -70 59 -109 91 -40 33 -94 74 -122 92 -27 17 -61 42 -75 54 -14 12 -54 37 -90 55 -66 34 -101 59 -174 128 -23 20 -45 37 -50 37 -6 0 -51 -11 -100 -24 -161 -43 -178 -45 -267 -36 -63 6 -89 5 -104 -4 -11 -7 -31 -11 -45 -9 -14 3 -49 7 -77 10 -52 5 -53 5 -53 38 0 21 6 35 16 39 8 3 12 10 9 16 -3 5 -1 10 4 10 6 0 11 -7 11 -16 0 -13 7 -15 31 -10 17 3 38 6 45 6 8 0 14 6 14 13 0 27 -61 135 -100 177 -23 25 -50 61 -60 80 -10 20 -41 57 -68 82 -28 26 -53 56 -57 68 -3 11 -12 26 -20 33 -7 8 -27 42 -44 76 -22 43 -55 84 -109 134 -126 118 -171 168 -165 183 6 15 -26 71 -57 99 -15 14 -20 15 -21 4 -6 -64 6 -699 15 -817 5 -73 -1 -79 -66 -64 -160 37 -180 45 -199 77 -11 17 -31 38 -46 45 -16 8 -58 33 -94 56 -36 23 -77 45 -90 49 -81 24 -321 231 -444 382 -27 34 -51 60 -53 59 -6 -6 59 -108 129 -201 64 -87 154 -180 249 -258 63 -52 44 -46 -25 7 -84 66 -241 220 -311 308 -63 77 -157 229 -189 303 -39 92 -86 246 -107 349 -19 97 -22 143 -22 361 0 152 4 271 12 305 6 30 14 72 17 93 2 20 21 86 40 145 19 60 35 112 35 115 0 4 -19 8 -42 8 -38 2 -35 3 17 9 33 3 63 2 66 -3 3 -5 10 -8 15 -8 5 1 10 -11 12 -26 2 -15 8 -32 14 -38 8 -7 9 -5 5 6 -3 9 -1 22 3 30 7 11 10 9 16 -6 10 -28 35 -55 50 -55 6 0 17 12 23 28 5 15 18 39 28 54 9 15 14 31 10 35 -4 4 -139 9 -300 11 -161 2 -296 5 -302 7 -5 2 191 4 436 4 245 1 449 4 453 9 4 4 147 7 316 7 l309 0 8 -75 c4 -41 8 -310 8 -597 0 -296 4 -519 9 -516 5 3 24 23 43 44 20 21 38 37 42 34 4 -2 16 10 26 28 10 18 46 64 79 103 82 94 120 141 229 276 141 174 239 288 246 284 3 -2 12 2 19 10 7 8 10 14 7 14 -19 0 101 135 300 338 77 78 140 142 140 142 0 1 -78 2 -173 3 -103 1 -173 6 -175 12 -1 5 11 12 28 15 l29 5 -29 28 c-17 15 -41 27 -55 27 l-25 -1 28 -15 c32 -17 35 -24 7 -17 -18 5 -19 3 -11 -20 8 -22 7 -26 -12 -30 -41 -10 -937 -7 -962 3 -17 6 -25 6 -25 -1 0 -15 -122 -7 -127 8 -3 9 40 12 179 12 101 1 234 3 296 6 103 6 112 5 112 -12 0 -15 2 -16 10 -3 7 12 33 15 117 16 122 1 158 5 238 29 31 8 60 13 65 10 5 -3 12 0 15 6 4 5 14 8 23 4 9 -3 13 -2 8 2 -4 4 16 13 46 20 29 6 123 32 208 56 85 25 167 47 183 51 24 6 40 36 18 36 -5 0 -32 16 -60 35 -28 19 -54 35 -59 35 -5 0 -19 11 -32 25 -13 14 -32 25 -41 25 -10 0 -47 13 -81 29 -66 30 -158 115 -142 131 5 5 43 15 84 23 41 8 62 15 45 16 -16 0 -55 -6 -84 -14 -38 -10 -67 -12 -93 -6 -45 10 -203 4 -238 -10 -14 -5 -81 -11 -150 -14 -69 -2 -134 -6 -145 -8 -93 -17 -106 -17 -156 -3 -85 23 -118 13 -160 -48 -22 -32 -28 -36 -70 -36 -32 0 -49 -5 -53 -15 -3 -8 -17 -15 -31 -15 -16 0 -25 -6 -25 -15 0 -8 -6 -15 -14 -15 -8 0 -17 -8 -20 -18 -4 -10 -23 -28 -44 -39 -55 -32 -188 -134 -262 -203 l-65 -60 -142 0 c-79 0 -143 4 -143 8 0 26 119 173 229 283 129 128 187 176 299 243 174 105 450 204 481 173 8 -8 15 -6 23 5 13 16 62 25 208 38 47 4 87 7 90 8 3 1 25 -3 50 -9z m-650 -419 c0 -5 -2 -10 -4 -10 -3 0 -8 5 -11 10 -3 6 -1 10 4 10 6 0 11 -4 11 -10z m-1257 -320 c66 -6 163 -11 218 -12 54 0 99 -5 99 -9 0 -5 7 -6 16 -2 15 5 33 -11 34 -30 0 -4 -225 -7 -500 -6 -275 0 -500 4 -500 8 0 14 284 33 314 21 34 -13 56 -13 36 0 -19 12 -9 15 85 28 39 5 72 10 75 10 3 1 58 -3 123 -8z m402 -30 c-13 -5 -15 -9 -7 -14 7 -4 16 -4 22 -1 5 3 18 8 27 10 10 2 26 6 36 10 11 5 17 2 17 -7 0 -22 -12 -29 -27 -17 -9 9 -13 8 -13 0 0 -16 -55 -14 -70 4 -15 18 -4 36 17 28 15 -6 14 -7 -2 -13z m135 1 c0 -5 23 -7 53 -5 28 3 150 1 270 -3 119 -4 217 -5 217 0 0 8 46 9 78 1 12 -4 22 -11 22 -16 0 -5 -128 -8 -327 -6 -303 3 -328 4 -331 21 -2 9 1 17 7 17 6 0 11 -4 11 -9z m-253 -178 c-4 -3 -10 -3 -14 0 -3 4 0 7 7 7 7 0 10 -3 7 -7z m258 -33 c3 -5 1 -10 -4 -10 -6 0 -11 5 -11 10 0 6 2 10 4 10 3 0 8 -4 11 -10z m1122 -1697 c-4 -3 -10 -3 -14 0 -3 4 0 7 7 7 7 0 10 -3 7 -7z m-60 -220 c-4 -3 -7 0 -7 7 0 7 3 10 7 7 3 -4 3 -10 0 -14z m-576 -100 c13 -16 12 -17 -3 -4 -17 13 -22 21 -14 21 2 0 10 -8 17 -17z m1069 -93 c0 -5 -2 -10 -4 -10 -3 0 -8 5 -11 10 -3 6 -1 10 4 10 6 0 11 -4 11 -10z m-50 -61 c0 -6 -4 -7 -10 -4 -5 3 -10 11 -10 16 0 6 5 7 10 4 6 -3 10 -11 10 -16z m80 -24 c16 -19 0 -19 -26 0 -16 12 -16 14 -3 15 9 0 22 -7 29 -15z m-53 -42 c-4 -3 -7 0 -7 7 0 7 3 10 7 7 3 -4 3 -10 0 -14z m813 3 c0 -3 -4 -8 -10 -11 -5 -3 -10 -1 -10 4 0 6 5 11 10 11 6 0 10 -2 10 -4z m107 -73 c-4 -3 -7 0 -7 7 0 7 3 10 7 7 3 -4 3 -10 0 -14z m253 -36 c33 -31 34 -32 11 -35 -32 -5 -54 6 -48 23 6 15 -26 31 -43 20 -11 -7 -14 8 -3 18 15 16 50 5 83 -26z m-190 -12 c7 -8 8 -15 2 -15 -5 0 -15 7 -22 15 -7 8 -8 15 -2 15 5 0 15 -7 22 -15z m-440 -41 c0 -8 -5 -12 -10 -9 -6 4 -8 11 -5 16 9 14 15 11 15 -7z m467 -21 c-4 -3 -7 0 -7 7 0 7 3 10 7 7 3 -4 3 -10 0 -14z m49 -10 c-7 -7 -26 7 -26 19 0 6 6 6 15 -2 9 -7 13 -15 11 -17z m-629 -10 c-4 -3 -7 0 -7 7 0 7 3 10 7 7 3 -4 3 -10 0 -14z m33 -23 c0 -5 -4 -10 -10 -10 -5 0 -10 5 -10 10 0 6 5 10 10 10 6 0 10 -4 10 -10z m296 -45 c13 -14 20 -25 15 -25 -4 0 -22 11 -41 25 -25 19 -29 25 -16 25 10 0 29 -11 42 -25z m88 -71 c4 -10 1 -14 -6 -12 -15 5 -23 28 -10 28 5 0 13 -7 16 -16z"/>
 <path d="M3200 3980 c-8 -5 -10 -10 -5 -10 6 0 17 5 25 10 8 5 11 10 5 10 -5 0 -17 -5 -25 -10z"/>
 <path d="M3153 3963 c4 -3 10 -3 14 0 3 4 0 7 -7 7 -7 0 -10 -3 -7 -7z"/>
 <path d="M3340 3550 c0 -7 3 -10 7 -7 3 4 3 10 0 14 -4 3 -7 0 -7 -7z"/>
 <path d="M3551 3504 c0 -11 3 -14 6 -6 3 7 2 16 -1 19 -3 4 -6 -2 -5 -13z"/>
 <path d="M3670 3494 c0 -2 7 -16 16 -29 12 -19 13 -25 3 -25 -9 0 -10 -3 -2 -11 8 -8 17 -7 32 3 27 16 27 38 1 38 -11 0 -20 4 -20 9 0 5 -7 11 -15 15 -8 3 -15 3 -15 0z"/>
 <path d="M2915 3449 c-11 -16 -1 -19 13 -3 7 8 8 14 3 14 -5 0 -13 -5 -16 -11z"/>
 <path d="M1390 3231 c0 -5 -8 -12 -17 -15 -31 -10 -142 -218 -191 -356 -111 -315 -97 -649 39 -948 16 -34 26 -69 22 -79 -4 -10 -2 -14 4 -10 5 3 20 -13 33 -36 60 -108 153 -231 248 -325 58 -57 107 -100 111 -97 5 5 21 563 16 572 -1 1 -17 -11 -36 -26 -19 -16 -58 -50 -88 -75 -74 -62 -86 -58 -23 7 121 124 141 149 147 180 3 18 2 235 -3 482 -11 539 -2 501 -143 641 -86 86 -119 110 -119 85z m107 -1098 c-4 -3 -10 -3 -14 0 -3 4 0 7 7 7 7 0 10 -3 7 -7z m-127 -143 c0 -5 -4 -10 -10 -10 -5 0 -10 5 -10 10 0 6 5 10 10 10 6 0 10 -4 10 -10z m87 -57 c-4 -3 -7 0 -7 7 0 7 3 10 7 7 3 -4 3 -10 0 -14z"/>
 <path d="M1130 3220 c0 -7 3 -10 7 -7 3 4 3 10 0 14 -4 3 -7 0 -7 -7z"/>
 <path d="M1110 3201 c0 -5 8 -19 19 -32 10 -13 22 -39 25 -56 4 -18 12 -33 17 -33 12 0 12 17 -1 25 -5 3 -7 12 -3 20 3 9 0 21 -6 29 -7 8 -10 19 -9 26 2 7 -7 16 -19 21 -13 4 -23 5 -23 0z"/>
 <path d="M3657 3058 c-58 -73 -143 -181 -189 -239 -45 -58 -127 -160 -180 -227 -93 -115 -139 -177 -264 -353 -130 -185 -244 -361 -244 -376 0 -22 549 -583 570 -583 24 0 141 93 238 190 50 49 96 90 101 90 6 0 11 7 11 15 0 9 23 50 51 91 101 150 158 277 211 471 29 110 32 130 32 283 1 123 -4 186 -17 248 -21 100 -67 239 -106 325 -16 34 -43 92 -59 130 -17 37 -35 67 -40 67 -5 0 -56 -60 -115 -132z"/>
 <path d="M1190 3140 c0 -5 5 -10 11 -10 5 0 7 5 4 10 -3 6 -8 10 -11 10 -2 0 -4 -4 -4 -10z"/>
 <path d="M3871 3125 c1 -19 18 -51 18 -35 0 8 -4 22 -9 30 -5 8 -9 11 -9 5z"/>
 <path d="M3430 3100 c-13 -8 -12 -10 3 -10 9 0 17 5 17 10 0 12 -1 12 -20 0z"/>
 <path d="M1193 3093 c4 -3 10 -3 14 0 3 4 0 7 -7 7 -7 0 -10 -3 -7 -7z"/>
 <path d="M1080 2161 c0 -5 7 -12 16 -15 14 -5 15 -4 4 9 -14 17 -20 19 -20 6z"/>
 <path d="M1104 2119 c-3 -6 1 -18 10 -27 15 -15 16 -14 16 11 0 27 -13 36 -26 16z"/>
 <path d="M3970 2100 c0 -7 3 -10 7 -7 3 4 3 10 0 14 -4 3 -7 0 -7 -7z"/>
 <path d="M1145 1990 c-3 -5 -2 -10 4 -10 5 0 13 5 16 10 3 6 2 10 -4 10 -5 0 -13 -4 -16 -10z"/>
 <path d="M3928 1928 c-3 -7 2 -19 9 -27 19 -18 22 -11 7 17 -8 16 -13 19 -16 10z"/>
 <path d="M1175 1880 c3 -5 8 -10 11 -10 2 0 4 5 4 10 0 6 -5 10 -11 10 -5 0 -7 -4 -4 -10z"/>
 <path d="M2606 1799 c50 -53 271 -283 348 -361 61 -63 51 -38 -20 48 -59 72 -170 185 -300 305 -71 66 -87 70 -28 8z"/>
 <path d="M3738 1582 c-23 -27 -51 -51 -60 -55 -10 -3 -18 -11 -18 -18 0 -18 -108 -114 -203 -180 -85 -59 -88 -62 -71 -80 9 -10 24 -19 32 -19 48 0 305 269 361 378 18 33 7 27 -41 -26z"/>
 <path d="M2620 1560 c0 -8 9 -26 20 -40 11 -14 20 -30 20 -35 0 -6 33 -47 73 -91 45 -50 87 -110 112 -159 22 -44 45 -84 51 -90 21 -18 75 -128 70 -141 -7 -18 12 -28 27 -16 7 5 21 11 31 13 39 8 26 43 -51 144 -41 55 -107 143 -147 195 -82 110 -206 242 -206 220z"/>
 <path d="M2890 1460 c0 -7 3 -10 7 -7 3 4 3 10 0 14 -4 3 -7 0 -7 -7z"/>
 <path d="M3020 1330 c0 -7 3 -10 7 -7 3 4 3 10 0 14 -4 3 -7 0 -7 -7z"/>
 <path d="M3294 1234 c-18 -14 -18 -15 4 -4 12 6 22 13 22 15 0 8 -5 6 -26 -11z"/>
 <path d="M3190 1202 c0 -5 7 -15 15 -22 8 -7 15 -8 15 -2 0 5 -7 15 -15 22 -8 7 -15 8 -15 2z"/>
 <path d="M3250 1170 c0 -5 5 -10 10 -10 6 0 10 5 10 10 0 6 -4 10 -10 10 -5 0 -10 -4 -10 -10z"/>
 </g>
<g id="layer103" fill="#ffffff" stroke="none">
 <path d="M0 2560 l0 -2550 2560 0 2560 0 0 2550 0 2550 -2560 0 -2560 0 0 -2550z m2735 1626 c50 -3 104 -7 120 -11 251 -51 458 -141 638 -276 123 -92 330 -304 395 -404 117 -181 216 -451 228 -625 1 -19 5 -48 9 -65 11 -46 13 -448 3 -462 -6 -7 -7 -16 -5 -20 3 -5 1 -31 -4 -58 -6 -28 -12 -61 -13 -75 -17 -120 -103 -341 -188 -480 -28 -47 -54 -87 -57 -90 -3 -3 -19 -23 -36 -45 -71 -97 -231 -256 -327 -324 -26 -19 -45 -37 -43 -41 4 -6 116 -63 160 -81 11 -4 54 -10 95 -13 156 -11 156 -11 162 -61 2 -25 0 -30 -17 -28 -79 9 -185 3 -213 -11 -17 -9 -38 -16 -47 -16 -8 0 -15 -9 -15 -20 0 -11 -7 -20 -15 -20 -8 0 -15 5 -15 10 0 12 -37 13 -44 1 -9 -14 250 -209 280 -210 6 -1 19 -10 30 -22 13 -14 25 -18 42 -14 19 5 23 3 19 -9 -5 -11 6 -16 48 -21 42 -6 56 -12 61 -27 3 -11 12 -17 20 -14 8 3 14 1 14 -3 0 -5 8 -7 19 -4 22 6 61 -32 61 -59 0 -10 5 -18 10 -18 6 0 10 -4 10 -9 0 -5 16 -35 35 -67 37 -61 41 -74 24 -74 -9 0 -73 46 -107 77 -7 7 -57 48 -110 90 -53 43 -98 81 -100 85 -2 5 -10 8 -18 8 -8 0 -22 9 -31 20 -10 11 -23 20 -29 20 -6 0 -17 6 -23 14 -7 8 -38 26 -69 42 -31 15 -64 33 -72 41 -46 41 -115 100 -133 112 -20 15 -28 13 -160 -23 -32 -9 -69 -16 -82 -16 -27 0 -75 -19 -88 -35 -5 -6 -7 -3 -4 7 7 20 -21 27 -105 27 -45 0 -58 -3 -58 -15 0 -15 -20 -13 -84 7 -16 5 -44 9 -62 9 -29 0 -34 4 -34 23 0 12 7 32 15 44 14 20 13 23 -15 40 -28 16 -41 43 -21 43 12 0 41 -29 41 -41 0 -5 6 -9 14 -9 8 0 16 -5 18 -11 3 -8 18 -9 45 -4 l42 7 -16 36 c-32 74 -37 84 -70 117 -18 19 -33 39 -33 45 0 5 -4 10 -9 10 -5 0 -22 21 -39 48 -16 26 -50 67 -76 92 -25 25 -49 54 -52 65 -4 11 -17 33 -30 48 -13 16 -24 35 -24 44 0 24 -38 73 -114 145 -158 151 -167 161 -163 180 4 15 -55 108 -68 108 -3 0 -5 -85 -5 -190 0 -169 2 -190 16 -190 12 0 14 -3 6 -13 -11 -13 -15 -181 -10 -382 l3 -120 -49 3 c-27 2 -72 12 -100 22 -28 10 -62 20 -76 22 -15 2 -33 16 -45 34 -18 29 -190 144 -214 144 -14 0 -71 34 -71 43 0 4 -7 7 -15 7 -8 0 -15 5 -15 10 0 6 -5 10 -11 10 -12 0 -71 43 -110 80 -15 14 -35 32 -45 41 -11 8 -64 62 -119 120 -54 57 -95 97 -90 89 79 -129 193 -263 310 -362 77 -65 78 -65 118 -91 42 -27 32 -41 -12 -16 -38 21 -142 101 -187 144 -11 11 -41 39 -65 61 -137 128 -239 262 -316 414 -49 96 -106 243 -117 301 -2 13 -9 44 -14 69 -24 103 -34 226 -34 415 -1 232 20 383 76 548 l33 97 -26 0 c-14 0 -33 5 -41 10 -11 7 -2 10 32 10 26 0 50 5 53 10 4 6 -31 11 -97 12 -57 0 -107 2 -113 3 -5 2 -54 3 -107 4 -55 0 -98 5 -98 11 0 6 168 9 446 10 246 0 452 4 458 8 6 4 149 7 319 7 264 0 308 -2 312 -15 11 -36 18 -299 16 -599 -1 -253 1 -326 11 -333 9 -6 10 -10 2 -15 -12 -9 -30 -233 -18 -233 4 0 22 18 41 40 19 22 40 40 46 40 7 0 23 17 37 37 26 38 104 135 188 232 26 30 74 89 107 130 97 124 215 264 244 291 15 14 32 32 37 41 13 24 171 195 310 336 l121 123 -136 1 c-183 1 -222 1 -246 -1 -11 -1 -193 -1 -405 -1 -212 0 -608 1 -879 1 -348 0 -497 3 -502 11 -4 7 -9 7 -13 1 -8 -13 -113 -14 -122 -1 -5 8 -9 8 -14 -1 -5 -8 -102 -11 -364 -11 -197 1 -361 3 -366 6 -5 3 -11 2 -13 -2 -3 -5 -65 -7 -137 -5 -155 4 -164 18 -19 32 52 5 113 11 136 14 25 4 55 0 76 -9 32 -13 35 -13 33 3 -1 14 12 18 69 25 80 9 356 1 590 -18 39 -3 90 -5 113 -5 24 1 50 -4 58 -11 11 -9 17 -9 29 1 10 9 42 10 122 3 118 -9 430 -9 588 0 55 4 188 6 295 7 107 0 242 0 300 0 93 1 222 14 240 25 6 4 34 10 85 20 11 3 40 11 65 19 81 25 162 48 189 52 14 3 37 9 51 14 14 6 68 21 120 34 l94 23 -39 26 c-22 14 -51 35 -65 46 -14 11 -30 21 -37 21 -6 0 -18 8 -25 18 -7 10 -33 24 -58 31 -25 7 -63 22 -85 33 -43 22 -138 115 -130 127 8 14 -137 20 -215 10 -41 -6 -142 -13 -225 -17 -82 -4 -155 -11 -162 -15 -6 -4 -36 -9 -66 -11 -42 -4 -57 -1 -61 10 -6 16 -77 19 -105 5 -10 -6 -30 -28 -46 -50 -23 -34 -33 -41 -61 -41 -19 0 -34 -4 -34 -10 0 -5 -5 -10 -11 -10 -5 0 -7 5 -4 11 4 6 -2 5 -14 -3 -12 -7 -21 -19 -21 -26 0 -7 -6 -12 -12 -11 -22 2 -58 -13 -58 -25 -1 -6 -47 -41 -103 -78 -56 -37 -127 -91 -157 -119 -30 -28 -67 -62 -81 -76 -26 -24 -30 -25 -175 -24 -81 1 -150 3 -152 5 -2 2 9 24 24 48 117 180 372 417 564 520 134 73 320 138 434 153 27 3 53 8 57 11 5 3 50 7 101 11 51 3 95 8 98 10 3 3 39 2 80 -1 41 -4 116 -8 165 -10z m220 -276 c-3 -5 -13 -10 -21 -10 -8 0 -14 5 -14 10 0 6 9 10 21 10 11 0 17 -4 14 -10z m-67 -38 c2 -7 -2 -10 -12 -6 -9 3 -16 11 -16 16 0 13 23 5 28 -10z m-1905 -629 c-7 -2 -19 -2 -25 0 -7 3 -2 5 12 5 14 0 19 -2 13 -5z m1345 -1701 c2 -7 -3 -12 -12 -12 -9 0 -16 7 -16 16 0 17 22 14 28 -4z m33 -25 c-1 -12 -15 -9 -19 4 -3 6 1 10 8 8 6 -3 11 -8 11 -12z m-51 -217 c0 -5 -7 -10 -15 -10 -8 0 -15 5 -15 10 0 6 7 10 15 10 8 0 15 -4 15 -10z m300 -10 c0 -5 -4 -10 -10 -10 -5 0 -10 5 -10 10 0 6 5 10 10 10 6 0 10 -4 10 -10z m140 -50 c0 -5 -4 -10 -10 -10 -5 0 -10 5 -10 10 0 6 5 10 10 10 6 0 10 -4 10 -10z m-30 -30 c0 -5 -5 -10 -11 -10 -5 0 -7 5 -4 10 3 6 8 10 11 10 2 0 4 -4 4 -10z m70 -105 c0 -8 -4 -15 -10 -15 -5 0 -10 7 -10 15 0 8 5 15 10 15 6 0 10 -7 10 -15z m-50 -69 c-8 -8 -13 -7 -20 4 -12 20 -1 33 16 19 11 -9 12 -15 4 -23z m-33 -33 c-4 -3 -10 -3 -14 0 -3 4 0 7 7 7 7 0 10 -3 7 -7z m73 -28 c0 -8 -4 -15 -10 -15 -5 0 -10 7 -10 15 0 8 5 15 10 15 6 0 10 -7 10 -15z m920 -65 c0 -5 -4 -10 -10 -10 -5 0 -10 5 -10 10 0 6 5 10 10 10 6 0 10 -4 10 -10z m215 -15 c23 -10 55 -43 55 -57 0 -5 -17 -8 -37 -6 -26 2 -38 8 -38 18 0 22 -17 31 -33 18 -10 -9 -16 -8 -23 3 -11 18 -11 32 0 24 5 -3 12 -1 15 3 6 11 33 9 61 -3z m-103 -10 c0 -5 -5 -11 -11 -13 -6 -2 -11 4 -11 13 0 9 5 15 11 13 6 -2 11 -8 11 -13z m-58 -31 c4 -11 1 -14 -11 -12 -9 2 -18 9 -21 16 -6 18 25 15 32 -4z m-436 -42 c2 -7 -3 -12 -12 -12 -9 0 -16 7 -16 16 0 17 22 14 28 -4z m513 -19 c17 -19 2 -30 -21 -15 -11 7 -27 12 -35 12 -8 0 -15 4 -15 9 0 15 59 10 71 -6z m-631 -13 c0 -5 -4 -10 -10 -10 -5 0 -10 5 -10 10 0 6 5 10 10 10 6 0 10 -4 10 -10z m34 -35 c-4 -8 -10 -12 -15 -9 -14 8 -10 24 6 24 9 0 12 -6 9 -15z m723 9 c-3 -3 -12 -4 -19 -1 -8 3 -5 6 6 6 11 1 17 -2 13 -5z m-426 -48 c15 -18 15 -22 3 -24 -15 -4 -64 36 -64 51 0 14 43 -5 61 -27z m444 14 c3 -5 -1 -10 -9 -10 -9 0 -16 5 -16 10 0 6 4 10 9 10 6 0 13 -4 16 -10z m-685 -4 c0 -3 -4 -8 -10 -11 -5 -3 -10 -1 -10 4 0 6 5 11 10 11 6 0 10 -2 10 -4z m330 -82 c0 -9 -7 -14 -17 -12 -25 5 -28 28 -4 28 12 0 21 -6 21 -16z"/>
 <path d="M3030 3461 c14 -11 21 -21 15 -21 -5 0 -2 -5 8 -11 26 -15 35 -2 11 16 -31 25 -63 39 -34 16z"/>
 <path d="M3707 3463 c-4 -3 -7 -12 -7 -19 0 -17 27 -7 34 12 5 14 -15 20 -27 7z"/>
 <path d="M3021 3424 c0 -11 3 -14 6 -6 3 7 2 16 -1 19 -3 4 -6 -2 -5 -13z"/>
 <path d="M1174 3262 c-17 -11 2 -53 21 -46 10 4 15 0 15 -11 0 -18 40 -56 52 -48 5 2 8 13 8 24 0 10 3 19 8 19 4 0 14 13 24 29 14 26 14 30 1 35 -21 8 -116 7 -129 -2z m51 -22 c3 -5 2 -10 -4 -10 -5 0 -13 5 -16 10 -3 6 -2 10 4 10 5 0 13 -4 16 -10z m34 -13 c-9 -7 -14 -18 -11 -26 3 -8 -1 -12 -9 -9 -22 7 -21 24 3 36 30 14 37 14 17 -1z"/>
 <path d="M1385 3222 c-54 -45 -143 -212 -201 -377 -94 -267 -93 -559 3 -830 34 -98 137 -307 154 -313 5 -2 9 -8 9 -14 0 -20 128 -174 206 -248 l79 -75 6 40 c3 22 6 137 6 255 0 118 3 227 8 243 4 15 4 27 1 27 -4 0 -46 -34 -94 -75 -81 -70 -112 -88 -112 -66 0 9 10 21 46 52 53 45 145 149 154 175 8 19 9 103 5 259 -3 126 -6 284 -7 350 -1 66 -3 114 -5 108 -3 -7 -9 -13 -15 -13 -6 0 -4 8 5 18 26 28 16 192 -16 262 -27 59 -34 68 -143 172 -67 65 -70 66 -89 50z m252 -548 c-9 -9 -28 6 -21 18 4 6 10 6 17 -1 6 -6 8 -13 4 -17z m-44 -119 c-7 -21 -13 -19 -13 6 0 11 4 18 10 14 5 -3 7 -12 3 -20z m-85 -417 c-6 -18 -28 -21 -28 -4 0 9 7 16 16 16 9 0 14 -5 12 -12z m-98 -62 c0 -11 -19 -15 -25 -6 -3 5 1 10 9 10 9 0 16 -2 16 -4z m-32 -87 c-2 -6 -8 -10 -13 -10 -5 0 -11 4 -13 10 -2 6 4 11 13 11 9 0 15 -5 13 -11z m92 -49 c0 -5 -7 -10 -15 -10 -8 0 -15 5 -15 10 0 6 7 10 15 10 8 0 15 -4 15 -10z m7 -107 c-4 -3 -10 -3 -14 0 -3 4 0 7 7 7 7 0 10 -3 7 -7z"/>
 <path d="M1130 3179 c0 -5 5 -7 10 -4 6 3 10 8 10 11 0 2 -4 4 -10 4 -5 0 -10 -5 -10 -11z"/>
 <path d="M3721 3128 c-22 -29 -50 -65 -63 -80 -32 -37 -42 -49 -142 -178 -49 -63 -113 -142 -141 -175 -28 -33 -64 -78 -81 -100 -16 -22 -31 -42 -34 -45 -3 -3 -18 -23 -35 -45 -16 -22 -32 -42 -35 -45 -4 -3 -33 -43 -65 -90 -67 -97 -107 -153 -116 -160 -13 -11 -62 -96 -62 -107 0 -7 -3 -10 -7 -8 -7 4 -152 -209 -154 -228 -2 -19 456 -496 544 -565 23 -18 26 -19 50 -4 14 9 27 19 30 22 3 3 28 23 55 45 28 21 85 74 127 117 42 43 81 78 87 78 6 0 11 7 11 16 0 8 21 45 48 82 26 36 52 76 58 87 67 124 83 157 94 191 7 21 16 44 20 49 4 6 10 19 12 30 3 11 17 63 31 115 35 130 47 262 37 390 -11 131 -16 161 -62 310 -22 71 -27 82 -88 215 -23 50 -46 100 -51 113 -13 33 -24 28 -68 -30z m-727 -1244 c9 -24 7 -27 -9 -10 -17 17 -19 26 -6 26 5 0 12 -7 15 -16z m376 -354 c0 -5 -4 -10 -10 -10 -5 0 -10 5 -10 10 0 6 5 10 10 10 6 0 10 -4 10 -10z m-30 -196 c0 -8 -5 -12 -10 -9 -6 4 -8 11 -5 16 9 14 15 11 15 -7z"/>
 <path d="M1147 3139 c6 -23 9 -24 16 -5 3 8 0 17 -7 19 -10 4 -12 -1 -9 -14z"/>
 <path d="M1105 2110 c3 -5 10 -10 16 -10 5 0 9 5 9 10 0 6 -7 10 -16 10 -8 0 -12 -4 -9 -10z"/>
 <path d="M2615 1790 c3 -5 8 -10 11 -10 3 0 2 5 -1 10 -3 6 -8 10 -11 10 -3 0 -2 -4 1 -10z"/>
 <path d="M2682 1727 c13 -13 76 -79 141 -146 64 -67 117 -117 117 -112 0 12 -260 281 -271 281 -6 0 0 -11 13 -23z"/>
 <path d="M3718 1551 c-7 -12 -18 -21 -25 -21 -7 0 -17 -9 -23 -20 -14 -26 -97 -103 -162 -151 -29 -21 -57 -42 -63 -46 -5 -5 -23 -16 -38 -26 -28 -18 -28 -19 -11 -38 9 -10 20 -19 24 -19 37 0 336 317 317 336 -3 3 -12 -3 -19 -15z"/>
 <path d="M2642 1525 c28 -51 82 -119 130 -167 20 -20 48 -58 61 -85 47 -93 60 -118 67 -123 16 -11 70 -118 70 -138 0 -12 6 -22 13 -22 18 1 74 28 58 29 -8 1 -11 7 -7 17 4 10 -7 32 -26 57 -18 23 -36 47 -41 52 -63 81 -110 144 -147 195 -25 35 -80 100 -123 144 -66 68 -74 75 -55 41z"/>
 <path d="M2965 1430 c10 -11 20 -20 23 -20 3 0 -3 9 -13 20 -10 11 -20 20 -23 20 -3 0 3 -9 13 -20z"/>
 <path d="M3963 653 c4 -3 10 -3 14 0 3 4 0 7 -7 7 -7 0 -10 -3 -7 -7z"/>
 <path d="M4023 623 c4 -3 10 -3 14 0 3 4 0 7 -7 7 -7 0 -10 -3 -7 -7z"/>
 </g>

</svg>