<!DOCTYPE svg PUBLIC "-//W3C//DTD SVG 20010904//EN" "http://www.w3.org/TR/2001/REC-SVG-20010904/DTD/svg10.dtd">
<svg version="1.0" xmlns="http://www.w3.org/2000/svg" width="800px" height="600px" viewBox="0 0 8000 6000" preserveAspectRatio="xMidYMid meet">
<g id="layer101" fill="#1c2c46" stroke="none">
 <path d="M0 3000 l0 -3000 4000 0 4000 0 0 3000 0 3000 -4000 0 -4000 0 0 -3000z"/>
 </g>
<g id="layer102" fill="#fbfcfb" stroke="none">
 <path d="M3991 4973 c-10 -21 -15 -140 -19 -494 l-5 -466 37 -5 c20 -2 38 -2 40 0 6 5 -4 890 -10 928 -2 17 -10 38 -17 48 -12 16 -14 16 -26 -11z"/>
 <path d="M3892 3949 c-79 -8 -202 -38 -202 -49 0 -17 43 -43 101 -61 34 -11 115 -24 180 -29 118 -10 183 -21 232 -39 19 -7 34 -5 63 9 22 11 64 26 94 34 l55 14 -95 45 c-139 66 -279 91 -428 76z"/>
 <path d="M3525 3870 c3 -41 13 -111 21 -155 10 -61 14 -192 14 -556 0 -463 -1 -477 -20 -502 -11 -14 -28 -28 -38 -31 -9 -3 -37 -10 -62 -17 l-45 -12 81 -27 c100 -33 138 -56 228 -137 38 -35 74 -63 79 -63 5 0 5 153 1 365 -4 232 -3 365 3 365 19 0 447 -370 463 -400 22 -40 12 -60 -40 -84 -45 -21 -48 -24 -28 -30 13 -3 39 -6 59 -6 80 0 182 -45 262 -116 34 -31 57 -42 57 -29 0 13 -76 156 -110 205 -48 70 -122 140 -337 319 -95 79 -173 148 -173 154 0 15 99 125 275 305 165 169 243 230 395 308 l75 39 -70 3 c-81 4 -196 -10 -275 -33 -50 -15 -67 -28 -190 -155 -74 -76 -184 -197 -245 -269 -60 -71 -113 -130 -117 -130 -5 -1 -8 96 -8 214 0 272 5 285 115 339 l49 23 -64 7 c-121 14 -239 68 -329 150 l-33 31 7 -75z m120 -142 c11 -24 20 -45 22 -47 2 -3 15 6 31 20 l27 24 -23 -26 -22 -26 3 -544 c2 -489 4 -548 20 -588 9 -24 15 -46 13 -49 -3 -2 -13 23 -23 57 -14 47 -22 60 -33 55 -8 -3 -24 -8 -35 -10 -11 -2 -8 1 8 7 15 6 29 20 32 32 3 12 5 247 3 522 l-3 500 -26 62 c-15 35 -23 61 -20 58 4 -2 16 -23 26 -47z m671 -109 c-21 -18 -132 -136 -247 -263 l-209 -231 22 -19 c47 -38 355 -313 408 -364 35 -35 25 -28 -30 20 -47 40 -161 138 -253 217 -166 143 -167 145 -149 165 199 230 467 506 491 506 3 0 -12 -14 -33 -31z"/>
 <path d="M3389 3692 c-105 -112 -163 -227 -195 -382 -20 -99 -15 -249 11 -345 21 -75 75 -192 104 -225 20 -23 20 -21 -4 28 -89 183 -87 439 6 623 42 84 79 137 133 192 l45 44 -12 67 c-6 36 -14 66 -18 66 -4 0 -35 -31 -70 -68z"/>
 <path d="M3962 3629 c-2 -74 0 -130 5 -128 5 2 26 23 46 45 37 41 37 42 37 128 l0 86 -42 0 -43 0 -3 -131z"/>
 <path d="M4553 3614 c-24 -14 -43 -27 -43 -28 0 -2 18 -26 40 -52 57 -69 117 -190 140 -280 39 -153 21 -351 -45 -486 -24 -49 -24 -51 -4 -28 30 34 83 151 105 230 25 90 26 299 1 390 -29 107 -119 280 -145 280 -4 0 -26 -12 -49 -26z"/>
 <path d="M3425 3483 c-86 -115 -121 -202 -140 -345 -4 -31 -2 -48 4 -48 6 0 11 12 11 26 0 84 63 232 131 307 l38 42 7 -32 c12 -61 23 -34 17 45 -3 42 -7 78 -8 80 -1 1 -28 -33 -60 -75z"/>
 <path d="M4412 3508 c-29 -28 -47 -48 -40 -45 7 3 30 13 52 22 l39 16 49 -53 c63 -67 126 -193 141 -281 13 -79 30 -91 22 -14 -10 82 -34 157 -72 227 -34 63 -120 180 -132 180 -3 0 -30 -23 -59 -52z"/>
 <path d="M3492 3355 c0 -16 2 -22 5 -12 2 9 2 23 0 30 -3 6 -5 -1 -5 -18z"/>
 <path d="M3957 2648 c-10 -301 -9 -548 2 -548 34 0 41 13 41 76 0 36 4 64 10 64 6 0 10 -28 10 -64 0 -60 8 -76 36 -76 2 0 4 152 4 338 l0 338 -32 30 c-70 64 -64 77 -71 -158z"/>
 <path d="M3955 2058 c-22 -5 -124 -8 -229 -6 -154 4 -185 2 -171 -8 31 -23 126 -29 460 -29 329 0 407 5 439 28 13 10 -25 12 -186 12 -112 0 -219 3 -238 6 -19 4 -53 3 -75 -3z"/>
 <path d="M3952 1833 c3 -76 1 -162 -4 -190 -7 -38 -5 -73 7 -127 8 -43 15 -125 15 -191 0 -90 3 -115 13 -109 6 4 2 -4 -9 -17 -42 -47 -47 -66 -27 -107 27 -56 93 -58 126 -3 24 41 22 55 -15 98 -18 20 -28 34 -22 30 8 -4 13 38 17 146 3 84 10 169 16 190 6 24 6 50 0 70 -5 18 -9 102 -8 187 l1 155 -57 3 -57 3 4 -138z"/>
 </g>

</svg>