<?xml version="1.0" encoding="UTF-8"?>
<svg width="600px" height="600px" viewBox="0 0 600 600" version="1.1" xmlns="http://www.w3.org/2000/svg" xmlns:xlink="http://www.w3.org/1999/xlink">
    <!-- Generator: Sketch 60.1 (88133) - https://sketch.com -->
    <title>kaa-icon-1</title>
    <desc>Created with Sketch.</desc>
    <g id="Page-1" stroke="none" stroke-width="1" fill="none" fill-rule="evenodd">
        <g id="kaa-icon-1" fill-rule="nonzero">
            <g id="layer101" fill="#1C2C46">
                <polygon id="Path" points="0 300 0 0 300 0 600 0 600 300 600 600 300 600 0 600"></polygon>
            </g>
            <g id="layer102" transform="translate(113.000000, 113.000000)" fill="#FBFCFB">
                <path d="M168.644138,374.004289 C150.011034,372.113181 121,365.021527 121,362.421254 C121,358.40265 131.142069,352.25655 144.822069,348.001558 C152.841379,345.401285 171.946207,342.328235 187.277241,341.146292 C215.108966,338.782408 230.44,336.182134 241.997241,331.927142 C246.478621,330.272423 250.016552,330.7452 256.856552,334.054638 C262.045517,336.654911 271.951724,340.200738 279.027586,342.091846 L292,345.401285 L269.593103,356.038766 C236.808276,371.640404 203.787586,377.550116 168.644138,374.004289 Z" id="Path"></path>
                <path d="M80.8372093,355.238095 C81.5488372,345.528254 83.9209302,328.950476 85.8186047,318.530159 C88.1906977,304.08381 89.1395349,273.059683 89.1395349,186.855238 C89.1395349,77.2050794 88.9023256,73.8895238 84.3953488,67.9688889 C81.7860465,64.6533333 77.7534884,61.3377778 75.3813953,60.6273016 C73.2465116,59.9168254 66.6046512,58.2590476 60.6744186,56.6012698 L50,53.7593651 L69.2139535,47.3650794 C92.9348837,39.5498413 101.948837,34.1028571 123.297674,14.92 C132.311628,6.63111111 140.851163,0 142.037209,0 C143.223256,0 143.223256,36.2342857 142.274419,86.4412698 C141.325581,141.384762 141.562791,172.88254 142.986047,172.88254 C147.493023,172.88254 249.018605,85.2571429 252.813953,78.152381 C258.032558,68.6793651 255.660465,63.9428571 243.325581,58.2590476 C232.651163,53.2857143 231.939535,52.5752381 236.683721,51.1542857 C239.767442,50.4438095 245.934884,49.7333333 250.67907,49.7333333 C269.655814,49.7333333 293.851163,39.0761905 312.827907,22.2615873 C320.893023,14.92 326.348837,12.3149206 326.348837,15.3936508 C326.348837,18.472381 308.32093,52.3384127 300.255814,63.9428571 C288.869767,80.5206349 271.316279,97.0984127 220.316279,139.490159 C197.781395,158.199365 179.27907,174.540317 179.27907,175.96127 C179.27907,179.513651 202.762791,205.564444 244.511628,248.193016 C283.651163,288.216508 302.153488,302.662857 338.209302,321.135238 L356,330.371429 L339.395349,331.081905 C320.181395,332.029206 292.902326,328.713651 274.162791,323.266667 C262.302326,319.714286 258.269767,316.635556 229.093023,286.55873 C211.539535,268.56 185.446512,239.904127 170.976744,222.852698 C156.744186,206.038095 144.172093,192.065397 143.223256,192.065397 C142.037209,191.828571 141.325581,214.800635 141.325581,242.746032 C141.325581,307.16254 142.511628,310.24127 168.604651,323.029841 L180.227907,328.476825 L165.046512,330.134603 C136.344186,333.450159 108.353488,346.23873 87.0046512,365.658413 L79.1767442,373 L80.8372093,355.238095 Z M109.302326,321.608889 C111.911628,315.925079 114.046512,310.951746 114.52093,310.478095 C114.995349,309.767619 118.07907,311.899048 121.874419,315.214603 L128.27907,320.898413 L122.823256,314.740952 L117.604651,308.583492 L118.316279,179.750476 C118.790698,63.9428571 119.265116,49.9701587 123.060465,40.4971429 C125.195349,34.8133333 126.618605,29.6031746 126.144186,28.8926984 C125.432558,28.4190476 123.060465,34.3396825 120.688372,42.391746 C117.367442,53.5225397 115.469767,56.6012698 112.860465,55.4171429 C110.962791,54.7066667 107.167442,53.5225397 104.55814,53.0488889 C101.948837,52.5752381 102.660465,53.2857143 106.455814,54.7066667 C110.013953,56.127619 113.334884,59.4431746 114.046512,62.2850794 C114.75814,65.1269841 115.232558,120.780952 114.75814,185.907937 L114.046512,304.320635 L107.87907,319.00381 C104.32093,327.292698 102.423256,333.450159 103.134884,332.739683 C104.083721,332.266032 106.930233,327.292698 109.302326,321.608889 Z M268.469767,295.794921 C263.488372,291.532063 237.15814,263.586667 209.87907,233.509841 L160.302326,178.803175 L165.52093,174.303492 C176.669767,165.304127 249.730233,100.177143 262.302326,88.0990476 C270.604651,79.8101587 268.232558,81.4679365 255.186047,92.8355556 C244.037209,102.308571 216.995349,125.51746 195.172093,144.226667 C155.795349,178.092698 155.55814,178.566349 159.827907,183.302857 C207.032558,237.772698 270.604651,303.136508 276.297674,303.136508 C277.009302,303.136508 273.451163,299.820952 268.469767,295.794921 Z" id="Shape"></path>
                <path d="M49.2423261,312.890899 C24.2967684,286.358263 10.5173176,259.11493 2.91486191,222.395656 C-1.83667288,198.942701 -0.648789182,163.40792 5.52820604,140.66566 C10.5173176,122.898269 23.3464615,95.1811397 30.2361869,87.3634879 C34.9877217,81.9148214 34.9877217,82.3886185 29.28588,93.996647 C8.14155017,137.34908 8.61670365,197.995107 30.7113404,241.584438 C40.6895635,261.483916 49.4799028,274.039538 62.3090467,287.068958 L73,297.492494 L70.1490791,313.364696 C68.7236187,321.893044 66.8230048,329 65.8726978,329 C64.9223909,329 57.5575119,321.656145 49.2423261,312.890899 Z" id="Path"></path>
                <path d="M325.107441,294.856911 C319.466078,291.549093 315,288.477549 315,288.241276 C315,287.768731 319.231022,282.098187 324.40227,275.955098 C337.800506,259.652284 351.903911,231.063291 357.310216,209.798751 C366.47743,173.649034 362.246408,126.867046 346.732662,94.9702363 C341.0913,83.3928757 341.0913,82.9203304 345.792435,88.3546017 C352.844138,96.3878723 365.302146,124.031774 370.473395,142.697315 C376.349814,163.961854 376.584871,213.342841 370.708452,234.843654 C363.891806,260.124829 342.736697,301 336.625222,301 C335.684995,301 330.513746,298.164728 325.107441,294.856911 Z" id="Path"></path>
                <path d="M57.5460055,264.207255 C37.2409983,236.932867 28.9773326,216.2992 24.4913426,182.384092 C23.5469237,175.031866 24.0191332,171 25.4357616,171 C26.85239,171 28.0329136,173.846023 28.0329136,177.166383 C28.0329136,197.088545 42.9075119,232.189496 58.9626339,249.97714 L67.9346138,259.93822 L69.587347,252.348826 C72.4206038,237.881542 75.0177559,244.285094 73.6011274,263.021412 C72.8928132,272.982493 71.9483943,281.520562 71.7122896,281.994899 C71.4761848,282.232068 65.101357,274.168336 57.5460055,264.207255 Z" id="Path"></path>
                <path d="M289.884503,269.648851 C282.979069,262.998232 278.692937,258.24779 280.359766,258.960357 C282.026595,259.672923 287.503319,262.048144 292.741924,264.185843 L302.028543,267.986196 L313.696346,255.397525 C328.697808,239.483545 343.699269,209.55576 347.271045,188.653816 C350.366585,169.88957 354.414598,167.039305 352.509651,185.328507 C350.128466,204.805319 344.413624,222.619476 335.365124,239.246023 C327.269097,254.209915 306.790912,282 303.933491,282 C303.219135,282 296.789938,276.536992 289.884503,269.648851 Z" id="Path"></path>
                <path d="M74,234.107638 C74,230.216191 74.3076923,228.756899 74.7692308,231.189053 C75.0769231,233.377992 75.0769231,236.783007 74.7692308,238.485515 C74.3076923,239.944807 74,238.242299 74,234.107638 Z" id="Path"></path>
            </g>
        </g>
    </g>
</svg>