<!DOCTYPE svg PUBLIC "-//W3C//DTD SVG 20010904//EN" "http://www.w3.org/TR/2001/REC-SVG-20010904/DTD/svg10.dtd">
<svg version="1.0" xmlns="http://www.w3.org/2000/svg" width="624px" height="436px" viewBox="0 0 6240 4360" preserveAspectRatio="xMidYMid meet">
<g id="layer101" fill="#e2342f" stroke="none">
 <path d="M3540 4350 c0 -5 -13 -10 -30 -10 -16 0 -30 -4 -30 -10 0 -6 -30 -10 -70 -10 -40 0 -70 -4 -70 -10 0 -5 -13 -10 -30 -10 -16 0 -30 -4 -30 -10 0 -5 -9 -10 -20 -10 -11 0 -20 -4 -20 -10 0 -5 -8 -10 -18 -10 -10 0 -24 -9 -32 -20 -8 -12 -26 -20 -42 -20 -19 0 -28 -5 -28 -16 0 -23 -25 -44 -54 -44 -17 0 -26 -5 -26 -16 0 -9 -13 -29 -30 -44 -23 -21 -30 -37 -30 -64 0 -20 -3 -36 -6 -36 -10 0 -34 28 -34 40 0 6 -7 18 -15 26 -13 14 -17 14 -30 0 -8 -8 -15 -20 -15 -26 0 -6 -27 -38 -60 -70 -33 -32 -60 -65 -60 -72 0 -8 -9 -20 -20 -28 -11 -8 -20 -22 -20 -32 0 -10 -4 -18 -10 -18 -5 0 -10 -18 -10 -40 l0 -40 150 0 c143 0 150 1 150 20 0 11 5 20 10 20 6 0 10 14 10 30 0 17 5 30 10 30 6 0 10 8 10 18 0 10 9 24 20 32 11 8 20 20 20 28 0 18 46 62 65 62 8 0 15 7 15 15 0 9 11 27 25 40 13 14 31 25 40 25 8 0 15 5 15 10 0 6 14 10 30 10 17 0 30 5 30 10 0 6 14 10 30 10 17 0 30 5 30 10 0 6 30 10 70 10 40 0 70 4 70 10 0 6 49 10 128 10 116 0 129 2 142 20 8 11 22 20 32 20 20 0 24 -16 6 -22 -9 -3 -8 -9 4 -21 11 -11 33 -17 62 -17 25 0 46 -4 46 -10 0 -5 14 -10 30 -10 17 0 30 -4 30 -10 0 -5 14 -10 30 -10 17 0 30 -4 30 -10 0 -5 14 -10 30 -10 17 0 30 -4 30 -10 0 -5 9 -10 20 -10 11 0 20 -4 20 -10 0 -5 9 -10 20 -10 11 0 20 -4 20 -10 0 -5 8 -10 18 -10 10 0 24 -9 32 -20 8 -11 21 -20 30 -20 9 0 22 -9 30 -20 8 -11 21 -20 30 -20 9 0 22 -9 30 -20 8 -11 21 -20 30 -20 9 0 22 -9 30 -20 8 -11 21 -20 30 -20 9 0 22 -9 30 -20 8 -11 21 -20 30 -20 9 0 22 -9 30 -20 13 -18 26 -20 162 -20 92 0 148 4 148 10 0 6 40 10 100 10 55 0 100 2 100 5 0 12 -110 115 -123 115 -7 0 -19 9 -27 20 -8 11 -22 20 -32 20 -10 0 -18 5 -18 10 0 6 -8 10 -18 10 -10 0 -24 9 -32 20 -8 11 -22 20 -32 20 -13 0 -18 8 -18 25 0 29 -40 75 -65 75 -8 0 -15 5 -15 10 0 6 -8 10 -18 10 -10 0 -24 9 -32 20 -8 11 -22 20 -32 20 -10 0 -18 5 -18 10 0 6 -9 10 -20 10 -11 0 -20 5 -20 10 0 6 -9 10 -20 10 -11 0 -20 5 -20 10 0 6 -13 10 -30 10 -16 0 -30 5 -30 10 0 6 -9 10 -20 10 -11 0 -20 5 -20 10 0 6 -13 10 -30 10 -16 0 -30 5 -30 10 0 6 -13 10 -30 10 -16 0 -30 5 -30 10 0 6 -18 10 -40 10 -22 0 -40 5 -40 10 0 6 -22 10 -50 10 -27 0 -50 5 -50 10 0 6 -40 10 -100 10 -93 0 -100 -1 -100 -20 0 -13 -7 -20 -20 -20 -16 0 -20 7 -20 30 0 28 -2 30 -40 30 -33 0 -40 -3 -40 -20 0 -11 5 -20 10 -20 6 0 10 -9 10 -20 0 -13 -7 -20 -20 -20 -11 0 -20 7 -20 15 0 9 -11 27 -25 40 -21 22 -33 25 -100 25 -43 0 -75 -4 -75 -10z m960 -350 c0 -22 -4 -40 -10 -40 -5 0 -10 5 -10 10 0 6 -9 10 -20 10 -11 0 -20 5 -20 10 0 6 -13 10 -30 10 -16 0 -30 5 -30 10 0 6 -9 10 -20 10 -11 0 -20 5 -20 10 0 6 33 10 80 10 l80 0 0 -40z m106 -94 c8 -8 14 -22 14 -30 0 -9 5 -16 10 -16 6 0 10 -9 10 -19 0 -11 6 -21 13 -24 6 -2 9 -8 5 -12 -4 -4 -21 6 -37 24 -16 17 -36 31 -45 31 -9 0 -16 8 -16 20 0 11 -4 20 -10 20 -5 0 -10 5 -10 10 0 15 49 12 66 -4z"/>
 <path d="M2600 4310 c0 -5 5 -10 10 -10 6 0 10 -4 10 -10 0 -5 -13 -10 -30 -10 -23 0 -30 -4 -30 -20 0 -11 5 -20 10 -20 6 0 10 -13 10 -30 0 -16 -4 -30 -10 -30 -5 0 -10 -9 -10 -20 0 -18 7 -20 60 -20 33 0 60 4 60 10 0 6 -4 10 -10 10 -6 0 -10 27 -10 60 0 33 4 60 10 60 6 0 10 9 10 20 0 17 -7 20 -40 20 -22 0 -40 -4 -40 -10z"/>
 <path d="M2740 4300 c0 -11 5 -20 10 -20 6 0 10 -4 10 -10 0 -5 -9 -10 -20 -10 -18 0 -20 -7 -20 -60 l0 -60 40 0 c22 0 40 -4 40 -10 0 -5 12 -10 26 -10 26 0 54 20 54 40 0 14 46 60 60 60 17 0 40 26 40 44 0 11 -9 16 -30 16 -16 0 -30 5 -30 10 0 6 -18 10 -40 10 -22 0 -40 5 -40 10 0 6 -22 10 -50 10 -43 0 -50 -3 -50 -20z"/>
 <path d="M2160 4230 c-14 -16 -31 -30 -38 -30 -18 0 -42 -25 -42 -44 0 -13 -12 -16 -60 -16 -33 0 -60 -4 -60 -10 0 -5 -9 -10 -20 -10 -11 0 -20 -4 -20 -10 0 -5 -13 -10 -28 -10 -16 0 -34 -8 -42 -20 -8 -11 -22 -20 -32 -20 -10 0 -18 -4 -18 -10 0 -5 -8 -10 -18 -10 -10 0 -24 -9 -32 -20 -8 -11 -21 -20 -30 -20 -9 0 -22 -9 -30 -20 -8 -11 -20 -20 -27 -20 -16 0 -303 -285 -303 -301 0 -6 -13 -24 -30 -39 -16 -15 -30 -34 -30 -42 0 -7 -9 -20 -20 -28 -11 -8 -20 -22 -20 -32 0 -10 -4 -18 -10 -18 -5 0 -10 -8 -10 -18 0 -10 -9 -24 -20 -32 -11 -8 -20 -22 -20 -32 0 -10 -4 -18 -10 -18 -5 0 -10 -9 -10 -20 0 -11 -4 -20 -10 -20 -5 0 -10 -9 -10 -20 0 -11 -4 -20 -10 -20 -5 0 -10 -9 -10 -20 0 -11 -4 -20 -10 -20 -5 0 -10 -13 -10 -30 0 -16 -4 -30 -10 -30 -5 0 -10 -9 -10 -20 0 -11 -4 -20 -10 -20 -5 0 -10 -13 -10 -30 0 -23 -4 -30 -20 -30 -16 0 -20 -7 -20 -30 0 -16 -4 -30 -10 -30 -5 0 -10 -13 -10 -30 0 -16 -4 -30 -10 -30 -5 0 -10 -18 -10 -40 0 -22 -4 -40 -10 -40 -5 0 -10 -22 -10 -50 0 -27 -4 -50 -10 -50 -5 0 -10 -22 -10 -50 0 -27 -4 -50 -10 -50 -6 0 -10 -37 -10 -90 0 -53 -4 -90 -10 -90 -6 0 -10 -77 -10 -210 0 -133 4 -210 10 -210 6 0 10 -27 10 -60 0 -33 4 -60 10 -60 6 0 10 -13 10 -30 0 -16 5 -30 10 -30 6 0 10 -33 10 -80 0 -47 4 -80 10 -80 6 0 10 -13 10 -30 0 -16 5 -30 10 -30 6 0 10 -13 10 -30 0 -16 5 -30 10 -30 6 0 10 -18 10 -40 0 -22 5 -40 10 -40 6 0 10 -18 10 -40 0 -22 5 -40 10 -40 6 0 10 -13 10 -30 0 -16 5 -30 10 -30 6 0 10 -13 10 -30 0 -16 5 -30 10 -30 6 0 10 -9 10 -20 0 -11 5 -20 10 -20 6 0 10 -9 10 -20 0 -16 7 -20 30 -20 17 0 30 5 30 10 0 6 5 10 10 10 6 0 10 -18 10 -40 0 -33 3 -40 20 -40 11 0 20 -4 20 -10 0 -5 -4 -10 -10 -10 -5 0 -10 -9 -10 -19 0 -11 -6 -21 -12 -24 -8 -2 -1 -15 20 -34 17 -17 32 -36 32 -43 0 -6 18 -29 40 -50 22 -21 40 -45 40 -52 0 -7 9 -20 20 -28 11 -8 20 -21 20 -28 0 -8 14 -27 30 -42 17 -15 30 -33 30 -40 0 -7 14 -25 30 -40 17 -15 30 -33 30 -39 0 -17 107 -121 125 -121 8 0 15 -4 15 -10 0 -5 7 -10 15 -10 9 0 65 -49 125 -110 60 -60 115 -110 122 -110 8 0 20 -9 28 -20 8 -11 22 -20 32 -20 10 0 18 -4 18 -10 0 -5 9 -10 20 -10 13 0 20 7 20 18 0 10 9 24 20 32 11 8 20 21 20 30 0 9 9 22 20 30 16 12 20 26 20 77 0 62 -1 65 -45 108 -24 25 -49 45 -55 45 -16 0 -80 67 -80 85 0 8 -4 15 -10 15 -5 0 -10 14 -10 30 0 17 -4 30 -10 30 -5 0 -10 8 -10 18 0 10 -9 24 -20 32 -11 8 -20 22 -20 32 0 14 -8 18 -35 18 -27 0 -44 8 -70 35 -19 19 -35 41 -35 50 0 8 -4 15 -10 15 -5 0 -10 9 -10 20 0 11 -4 20 -10 20 -5 0 -10 18 -10 40 0 22 -4 40 -10 40 -5 0 -10 14 -10 30 0 17 -4 30 -10 30 -5 0 -10 18 -10 40 0 22 -4 40 -10 40 -5 0 -10 14 -10 30 0 17 -4 30 -10 30 -5 0 -10 14 -10 30 0 17 -4 30 -10 30 -5 0 -10 14 -10 30 0 17 -4 30 -10 30 -5 0 -10 9 -10 20 0 13 -7 20 -20 20 -11 0 -20 -4 -20 -10 0 -5 -4 -10 -10 -10 -5 0 -10 9 -10 20 0 11 5 20 10 20 18 0 11 55 -10 70 -14 10 -20 26 -20 52 0 21 -4 38 -10 38 -5 0 -10 18 -10 40 0 22 -4 40 -10 40 -5 0 -10 18 -10 40 0 22 -4 40 -10 40 -5 0 -10 14 -10 30 0 17 -4 30 -10 30 -5 0 -10 12 -10 26 0 32 -21 54 -52 54 -13 0 -30 9 -38 20 -8 11 -22 20 -32 20 -15 0 -18 9 -18 50 0 28 5 50 10 50 6 0 10 -4 10 -10 0 -5 23 -10 50 -10 49 0 50 1 50 30 0 17 -4 30 -10 30 -6 0 -10 30 -10 70 0 40 -4 70 -10 70 -5 0 -10 18 -10 40 0 22 -4 40 -10 40 -5 0 -10 18 -10 40 0 22 5 40 10 40 6 0 10 9 10 20 0 11 5 20 10 20 6 0 10 14 10 30 0 17 -4 30 -10 30 -5 0 -10 14 -10 30 0 17 -4 30 -10 30 -5 0 -10 23 -10 50 0 54 7 61 30 30 8 -11 22 -20 32 -20 16 0 18 10 18 70 0 40 4 70 10 70 6 0 10 18 10 40 0 22 5 40 10 40 6 0 10 18 10 40 0 22 5 40 10 40 6 0 10 14 10 30 0 17 5 30 10 30 6 0 10 14 10 30 0 17 5 30 10 30 6 0 10 9 10 20 0 11 5 20 10 20 18 0 11 35 -10 50 -14 10 -20 26 -20 52 0 21 5 38 10 38 6 0 10 -12 10 -26 0 -23 20 -54 34 -54 3 0 6 9 6 20 0 11 5 20 10 20 6 0 10 18 10 40 0 29 4 40 15 40 19 0 105 84 105 103 0 7 9 19 20 27 11 8 20 21 20 28 0 8 15 28 33 45 20 19 27 32 20 34 -7 3 -13 11 -13 20 0 8 -13 28 -30 43 -16 15 -30 35 -30 44 0 9 -4 16 -10 16 -5 0 -10 5 -10 10 0 6 9 10 20 10 11 0 20 -4 20 -10 0 -5 14 -10 30 -10 21 0 30 -5 30 -16 0 -19 24 -44 42 -44 8 0 20 9 28 20 8 11 20 20 28 20 7 0 35 23 62 50 27 28 54 50 60 50 6 0 38 27 70 60 32 33 64 60 70 60 7 0 25 14 40 30 17 18 38 30 54 30 22 0 26 4 26 30 0 17 5 30 10 30 6 0 10 -9 10 -20 0 -17 7 -20 40 -20 22 0 40 5 40 10 0 6 9 10 20 10 11 0 20 5 20 10 0 6 9 10 20 10 11 0 20 5 20 10 0 6 9 10 20 10 18 0 20 7 20 58 0 46 -4 60 -20 72 -11 8 -20 22 -20 32 0 13 -8 18 -30 18 -27 0 -30 -3 -30 -30 0 -16 5 -30 10 -30 6 0 10 -4 10 -10 0 -5 -13 -10 -30 -10 -28 0 -30 2 -30 40 0 38 -2 40 -29 40 -16 0 -31 -6 -34 -12 -3 -9 -11 -6 -24 10 -28 30 -63 28 -93 -8z m-860 -2820 c0 -5 -4 -10 -10 -10 -5 0 -10 -9 -10 -20 0 -13 -7 -20 -20 -20 -26 0 -25 5 3 35 24 26 37 31 37 15z m0 -150 c0 -11 -4 -20 -10 -20 -5 0 -10 9 -10 20 0 11 5 20 10 20 6 0 10 -9 10 -20z"/>
 <path d="M3393 3925 c-7 -8 -13 -19 -13 -25 0 -17 -26 -40 -44 -40 -9 0 -16 -4 -16 -10 0 -5 -11 -10 -25 -10 -16 0 -39 -13 -60 -35 -22 -21 -35 -44 -35 -60 0 -14 -4 -25 -10 -25 -5 0 -10 -22 -10 -50 0 -27 5 -50 10 -50 6 0 10 -11 10 -25 0 -16 13 -39 35 -60 31 -32 40 -35 90 -35 30 0 55 5 55 10 0 6 14 10 30 10 23 0 30 4 30 20 0 11 -4 20 -10 20 -5 0 -10 9 -10 20 0 11 -4 20 -10 20 -5 0 -10 23 -10 50 0 43 -3 50 -20 50 -11 0 -20 5 -20 10 0 6 80 10 220 10 140 0 220 -4 220 -10 0 -5 9 -10 20 -10 11 0 20 -4 20 -10 0 -5 7 -10 15 -10 19 0 105 -84 105 -103 0 -7 9 -19 20 -27 11 -8 20 -22 20 -32 0 -10 5 -18 10 -18 6 0 10 -9 10 -20 0 -11 5 -20 10 -20 6 0 10 -13 10 -30 0 -16 5 -30 10 -30 6 0 10 -30 10 -70 0 -40 4 -70 10 -70 6 0 10 -9 10 -20 0 -13 -7 -20 -20 -20 -11 0 -20 -4 -20 -10 0 -5 -13 -10 -30 -10 -16 0 -30 -4 -30 -10 0 -5 -13 -10 -30 -10 -16 0 -30 -4 -30 -10 0 -5 -18 -10 -40 -10 -22 0 -40 -4 -40 -10 0 -6 -42 -10 -106 -10 -105 0 -106 0 -134 -30 -15 -16 -33 -30 -39 -30 -7 0 -23 -11 -36 -25 -43 -42 -29 -135 19 -135 9 0 16 -4 16 -10 0 -5 9 -10 20 -10 11 0 20 -4 20 -10 0 -5 23 -10 50 -10 28 0 50 5 50 10 0 6 14 10 30 10 23 0 30 4 30 20 0 11 5 20 10 20 6 0 10 7 10 15 0 25 46 65 75 65 18 0 25 -5 25 -20 0 -11 -4 -20 -10 -20 -5 0 -10 -4 -10 -10 0 -5 23 -10 50 -10 28 0 50 5 50 10 0 6 37 10 90 10 53 0 90 -4 90 -10 0 -5 16 -10 35 -10 29 0 44 9 80 45 30 29 45 53 45 70 0 14 5 25 10 25 6 0 10 27 10 60 0 33 4 60 10 60 6 0 10 30 10 70 0 40 -4 70 -10 70 -5 0 -10 14 -10 30 0 17 5 30 10 30 6 0 10 9 10 20 0 16 -7 20 -30 20 -16 0 -30 5 -30 10 0 6 -9 10 -20 10 -11 0 -20 4 -20 8 0 4 9 14 20 22 11 8 20 26 20 40 0 14 -9 32 -20 40 -11 8 -20 20 -20 27 0 19 -146 163 -165 163 -8 0 -15 5 -15 10 0 6 -9 10 -20 10 -11 0 -20 5 -20 10 0 6 -9 10 -20 10 -11 0 -20 5 -20 10 0 6 -9 10 -20 10 -11 0 -20 5 -20 10 0 6 -13 10 -30 10 -16 0 -30 5 -30 10 0 6 -13 10 -30 10 -16 0 -30 5 -30 10 0 6 -18 10 -40 10 -22 0 -40 5 -40 10 0 6 -43 10 -110 10 -67 0 -110 4 -110 10 0 6 -13 10 -30 10 -27 0 -30 -3 -30 -30 0 -16 -4 -30 -10 -30 -5 0 -10 7 -10 16 0 13 -23 45 -32 44 -2 -1 -9 -7 -15 -15z"/>
 <path d="M2480 3730 c0 -5 -8 -10 -18 -10 -10 0 -24 -9 -32 -20 -8 -11 -20 -20 -28 -20 -18 0 -62 -46 -62 -65 0 -8 5 -15 10 -15 6 0 10 -4 10 -10 0 -5 -7 -10 -16 -10 -28 0 -44 -27 -44 -74 0 -39 3 -46 20 -46 17 0 20 -7 20 -40 0 -22 5 -40 10 -40 6 0 10 -9 10 -20 0 -11 5 -20 10 -20 6 0 10 -8 10 -18 0 -10 9 -24 20 -32 11 -8 20 -22 20 -32 0 -10 5 -18 10 -18 6 0 10 -4 10 -10 0 -5 -7 -10 -16 -10 -8 0 -22 -6 -30 -14 -16 -17 -19 -46 -4 -46 6 0 10 -8 10 -18 0 -10 9 -24 20 -32 11 -8 20 -22 20 -32 0 -21 36 -25 43 -5 3 8 11 5 24 -10 11 -13 27 -23 34 -23 8 0 21 -9 29 -20 8 -11 22 -20 32 -20 10 0 18 -4 18 -10 0 -5 13 -10 29 -10 16 0 31 -6 33 -12 6 -17 38 14 38 36 0 9 5 16 10 16 18 0 10 31 -15 55 -13 14 -31 25 -40 25 -11 0 -15 12 -15 50 0 28 -4 50 -10 50 -5 0 -10 9 -10 20 0 17 -7 20 -50 20 -43 0 -50 3 -50 20 0 13 7 20 20 20 16 0 20 7 20 30 0 17 -4 30 -10 30 -6 0 -10 43 -10 110 0 67 -4 110 -10 110 -5 0 -10 9 -10 19 0 11 -6 22 -12 25 -10 5 -10 7 0 12 7 4 12 27 12 65 0 59 0 59 -30 59 -16 0 -30 -4 -30 -10z"/>
 <path d="M3540 3600 c0 -73 2 -80 20 -80 11 0 20 5 20 10 0 6 5 10 10 10 15 0 12 -29 -4 -46 -8 -8 -26 -14 -40 -14 -22 0 -26 -4 -26 -30 0 -16 -4 -30 -10 -30 -5 0 -10 -13 -10 -30 0 -16 -4 -30 -10 -30 -5 0 -10 -9 -10 -20 0 -11 5 -20 10 -20 6 0 10 -4 10 -10 0 -5 -13 -10 -30 -10 -16 0 -30 -4 -30 -10 0 -5 5 -10 10 -10 6 0 10 -11 10 -25 0 -29 -59 -95 -85 -95 -8 0 -15 -9 -15 -20 0 -16 -7 -20 -30 -20 -16 0 -30 -4 -30 -10 0 -5 -17 -10 -38 -10 -26 0 -42 -6 -52 -20 -13 -18 -26 -20 -112 -20 -91 0 -98 -1 -98 -20 0 -11 -4 -20 -10 -20 -5 0 -10 9 -10 20 0 15 -7 20 -26 20 -29 0 -67 -31 -46 -38 8 -2 12 -25 12 -63 0 -52 2 -59 20 -59 11 0 20 -4 20 -10 0 -5 9 -10 20 -10 11 0 20 -4 20 -10 0 -5 23 -10 50 -10 28 0 50 5 50 10 0 6 18 10 40 10 22 0 40 5 40 10 0 6 23 10 50 10 28 0 50 5 50 10 0 6 9 10 20 10 11 0 20 5 20 10 0 6 9 10 20 10 11 0 20 5 20 10 0 6 7 10 16 10 9 0 29 14 44 30 15 17 33 30 39 30 15 0 61 46 61 61 0 6 14 24 30 39 17 15 30 35 30 44 0 11 9 16 30 16 28 0 30 3 30 36 0 28 8 43 40 74 24 24 40 48 40 62 0 13 9 30 20 38 12 8 20 26 20 42 0 15 5 28 10 28 6 0 10 18 10 40 0 22 5 40 10 40 6 0 10 18 10 40 0 22 -4 40 -10 40 -5 0 -10 9 -10 20 0 15 -7 20 -29 20 -16 0 -32 -6 -35 -12 -5 -10 -7 -10 -12 0 -3 6 -14 12 -25 12 -10 0 -19 5 -19 10 0 6 -27 10 -60 10 l-60 0 0 -80z m180 -120 c0 -11 -4 -20 -10 -20 -5 0 -10 9 -10 20 0 11 5 20 10 20 6 0 10 -9 10 -20z"/>
 <path d="M2633 3585 c-15 -17 -17 -125 -3 -125 6 0 10 -13 10 -30 l0 -30 70 0 c40 0 70 -4 70 -10 0 -6 107 -10 300 -10 165 0 300 2 300 5 0 3 -20 26 -45 50 -29 30 -53 45 -70 45 -14 0 -25 5 -25 10 0 6 -11 10 -25 10 -29 0 -75 40 -75 65 0 12 -16 15 -100 15 -60 0 -100 -4 -100 -10 0 -5 -9 -10 -20 -10 -13 0 -20 7 -20 20 0 17 -7 20 -40 20 -33 0 -40 -3 -40 -20 0 -13 -7 -20 -20 -20 -13 0 -20 7 -20 20 0 18 -7 20 -67 20 -46 -1 -72 -5 -80 -15z m307 -125 c0 -18 -7 -20 -60 -20 -53 0 -60 2 -60 20 0 18 7 20 60 20 53 0 60 -2 60 -20z"/>
 <path d="M4810 3580 c-8 -11 -20 -20 -28 -20 -18 0 -42 -25 -42 -44 0 -9 -4 -16 -10 -16 -5 0 -10 9 -10 20 0 16 -7 20 -30 20 -23 0 -30 4 -30 20 0 17 -7 20 -50 20 -43 0 -50 -3 -50 -20 0 -18 -7 -20 -80 -20 -44 0 -80 -3 -80 -6 0 -3 14 -19 30 -34 17 -15 30 -35 30 -44 0 -9 5 -16 10 -16 6 0 10 -13 10 -30 0 -16 5 -30 10 -30 6 0 10 -9 10 -20 0 -18 7 -20 70 -20 40 0 70 -4 70 -10 0 -5 17 -10 38 -10 26 0 42 6 52 20 13 18 26 20 118 20 116 0 132 -7 132 -61 0 -20 8 -38 21 -50 19 -17 20 -20 5 -34 -14 -15 -18 -15 -31 -1 -8 8 -15 20 -15 26 0 33 -28 40 -164 40 -129 0 -136 -1 -136 -20 0 -11 -4 -20 -8 -20 -4 0 -14 9 -22 20 -12 16 -26 20 -72 20 l-58 0 0 -40 c0 -22 5 -40 10 -40 6 0 10 -9 10 -20 0 -20 7 -20 320 -20 l320 0 0 40 c0 22 5 40 10 40 14 0 12 37 -2 44 -10 5 -10 7 0 12 6 3 12 19 12 35 0 22 -5 29 -20 29 -11 0 -20 5 -20 10 0 6 -9 10 -20 10 -11 0 -20 -4 -20 -10 0 -18 -31 -10 -55 15 -14 13 -25 31 -25 40 0 8 -4 15 -10 15 -5 0 -10 9 -10 20 0 11 -4 20 -10 20 -5 0 -10 9 -10 20 0 11 5 20 10 20 6 0 10 14 10 30 l0 30 -60 0 c-33 0 -60 4 -60 10 0 18 -55 11 -70 -10z"/>
 <path d="M5100 3580 c0 -11 5 -20 10 -20 15 0 12 -70 -4 -86 -8 -8 -22 -14 -30 -14 -9 0 -16 -8 -16 -20 0 -13 7 -20 20 -20 11 0 20 -4 20 -10 0 -5 9 -10 20 -10 11 0 20 -4 20 -10 0 -5 9 -10 20 -10 11 0 20 -4 20 -10 0 -5 7 -10 16 -10 25 0 44 -26 44 -62 0 -22 7 -39 20 -48 12 -8 20 -26 20 -42 0 -28 0 -28 70 -28 63 0 70 2 70 20 0 11 -4 20 -10 20 -5 0 -10 9 -10 20 0 11 -4 20 -10 20 -5 0 -10 9 -10 20 0 18 7 20 80 20 l80 0 0 70 c0 40 4 70 10 70 6 0 10 -9 10 -20 0 -11 5 -20 10 -20 6 0 10 -7 10 -16 0 -9 15 -30 33 -47 20 -19 27 -32 20 -34 -7 -3 -13 -18 -13 -34 0 -22 -5 -29 -20 -29 -17 0 -20 -7 -20 -40 l0 -40 250 0 c160 0 250 4 250 10 0 6 29 10 66 10 43 0 70 5 80 14 17 17 20 166 4 166 -5 0 -10 7 -10 16 0 31 -27 44 -94 44 -37 0 -66 4 -66 10 0 6 -40 10 -100 10 -60 0 -100 4 -100 10 0 6 -40 10 -100 10 l-100 0 0 26 c0 32 -21 54 -53 54 -14 0 -27 6 -30 13 -3 8 -11 5 -24 -10 -18 -20 -30 -23 -94 -23 -63 0 -77 -3 -89 -20 -8 -11 -21 -20 -28 -20 -8 0 -27 -13 -42 -30 -33 -35 -40 -37 -40 -10 0 11 -4 20 -10 20 -14 0 -12 37 3 44 10 5 10 7 0 12 -7 3 -13 12 -13 21 0 8 -6 21 -14 29 -17 16 -46 19 -46 4 0 -5 -4 -10 -10 -10 -5 0 -10 9 -10 20 0 16 -7 20 -30 20 -23 0 -30 -4 -30 -20z"/>
 <path d="M2140 3560 c0 -13 -7 -20 -20 -20 -11 0 -20 -4 -20 -10 0 -5 -4 -10 -10 -10 -5 0 -10 9 -10 20 0 13 -7 20 -20 20 -11 0 -20 -4 -20 -10 0 -5 -18 -10 -40 -10 -22 0 -40 -4 -40 -10 0 -14 -38 -12 -42 2 -4 10 -158 -133 -158 -147 0 -3 32 -5 70 -5 63 0 70 2 70 20 0 13 7 20 20 20 11 0 20 5 20 10 0 6 5 10 10 10 6 0 10 -13 10 -30 l0 -30 140 0 140 0 0 90 0 90 -30 0 c-16 0 -30 5 -30 10 0 6 -9 10 -20 10 -13 0 -20 -7 -20 -20z"/>
 <path d="M720 3510 c0 -16 -4 -30 -10 -30 -5 0 -10 5 -10 10 0 6 -9 10 -20 10 -11 0 -20 5 -20 10 0 6 -18 10 -40 10 -22 0 -40 -4 -40 -10 0 -5 -18 -10 -40 -10 -22 0 -40 -4 -40 -10 0 -5 -22 -10 -50 -10 -27 0 -50 -4 -50 -10 0 -6 -47 -10 -120 -10 -73 0 -120 -4 -120 -10 0 -6 -33 -10 -80 -10 -47 0 -80 -4 -80 -10 0 -6 33 -10 80 -10 47 0 80 -4 80 -10 0 -6 83 -10 230 -10 147 0 230 -4 230 -10 0 -6 33 -10 78 -10 66 0 80 3 92 20 15 21 50 28 50 10 0 -15 177 -13 184 3 5 10 7 10 12 0 11 -24 54 -14 89 22 19 19 35 40 35 47 0 8 9 20 20 28 11 8 20 18 20 22 0 4 -40 8 -90 8 -53 0 -90 -4 -90 -10 0 -15 -77 -12 -84 3 -5 10 -7 10 -12 0 -7 -15 -44 -17 -44 -3 0 6 -33 10 -80 10 l-80 0 0 -30z"/>
 <path d="M540 3334 c0 -3 6 -12 14 -20 11 -10 41 -14 110 -14 57 0 96 -4 96 -10 0 -6 37 -10 90 -10 53 0 90 -4 90 -10 0 -5 23 -10 50 -10 l50 0 0 40 0 40 -250 0 c-137 0 -250 -3 -250 -6z"/>
 <path d="M1793 3305 c-21 -23 -16 -65 7 -65 11 0 20 -4 20 -10 0 -6 70 -10 190 -10 120 0 190 -4 190 -10 0 -5 23 -10 50 -10 49 0 50 1 50 30 0 17 -4 30 -10 30 -5 0 -10 7 -10 16 0 41 -19 44 -252 44 -180 -1 -225 -4 -235 -15z"/>
 <path d="M2640 3302 c0 -10 9 -24 20 -32 11 -8 20 -20 20 -28 0 -36 25 -42 184 -42 97 0 156 -4 156 -10 0 -6 63 -10 170 -10 107 0 170 4 170 10 0 6 7 10 16 10 8 0 22 6 30 14 16 17 19 46 4 46 -5 0 -10 7 -10 16 0 30 -27 44 -84 44 -31 0 -56 -4 -56 -10 0 -6 -40 -10 -100 -10 -93 0 -100 -1 -100 -20 0 -11 -4 -20 -10 -20 -5 0 -10 7 -10 16 0 40 -21 44 -214 44 -172 0 -186 -1 -186 -18z"/>
 <path d="M5060 3020 c0 -11 5 -20 10 -20 6 0 10 -13 10 -30 0 -16 5 -30 10 -30 6 0 10 -13 10 -30 0 -16 5 -30 10 -30 6 0 10 -13 10 -30 0 -16 5 -30 10 -30 6 0 10 -37 10 -90 0 -53 4 -90 10 -90 6 0 10 -9 10 -20 0 -11 -4 -20 -10 -20 -6 0 -10 -27 -10 -60 0 -33 4 -60 10 -60 6 0 10 -18 10 -40 0 -22 -4 -40 -10 -40 -6 0 -10 -35 -10 -86 0 -98 9 -114 64 -114 20 0 36 -4 36 -10 0 -5 -9 -10 -20 -10 -11 0 -20 -4 -20 -10 0 -5 -18 -10 -40 -10 l-40 0 0 -40 c0 -22 -4 -40 -10 -40 -5 0 -10 -13 -10 -30 0 -16 -4 -30 -10 -30 -5 0 -10 -13 -10 -30 0 -16 -4 -30 -10 -30 -5 0 -10 -4 -10 -10 0 -5 9 -10 20 -10 11 0 20 -4 20 -10 0 -5 9 -10 20 -10 11 0 20 -4 20 -10 0 -5 -22 -10 -50 -10 -49 0 -50 -1 -50 -30 0 -16 -4 -30 -10 -30 -5 0 -10 -13 -10 -30 0 -16 -4 -30 -10 -30 -5 0 -10 -9 -10 -20 0 -11 -4 -20 -10 -20 -5 0 -10 -13 -10 -30 0 -16 -4 -30 -10 -30 -5 0 -10 -9 -10 -20 0 -11 -4 -20 -10 -20 -5 0 -10 -13 -10 -30 0 -16 -4 -30 -10 -30 -5 0 -10 -13 -10 -30 0 -20 5 -30 15 -30 14 0 125 -102 125 -115 0 -3 -9 -5 -20 -5 -11 0 -20 5 -20 10 0 15 -97 12 -104 -2 -5 -10 -7 -10 -12 0 -15 32 -64 0 -64 -42 0 -14 -4 -26 -10 -26 -5 0 -10 -9 -10 -20 0 -11 -4 -20 -10 -20 -5 0 -10 -13 -10 -30 0 -16 -4 -30 -10 -30 -5 0 -10 -9 -10 -20 0 -11 -4 -20 -10 -20 -5 0 -10 -9 -10 -20 0 -11 -4 -20 -10 -20 -5 0 -10 -13 -10 -30 0 -16 -4 -30 -10 -30 -5 0 -10 -9 -10 -20 0 -11 -4 -20 -10 -20 -5 0 -10 -8 -10 -18 0 -10 -9 -24 -20 -32 -11 -8 -20 -20 -20 -28 0 -7 -6 -20 -14 -28 -17 -16 -46 -19 -46 -4 0 6 -13 10 -30 10 -16 0 -30 5 -30 10 0 6 -9 10 -20 10 -15 0 -20 -7 -20 -26 0 -14 -6 -32 -14 -40 -17 -16 -46 -19 -46 -4 0 6 -9 10 -20 10 -11 0 -20 5 -20 10 0 6 -9 10 -20 10 -11 0 -20 5 -20 10 0 6 -9 10 -20 10 -11 0 -20 5 -20 10 0 6 -13 10 -30 10 -16 0 -30 5 -30 10 0 6 -9 10 -20 10 -11 0 -20 5 -20 10 0 6 -13 10 -30 10 -16 0 -30 5 -30 10 0 6 -9 10 -20 10 -11 0 -20 5 -20 10 0 6 -17 10 -38 10 -26 0 -42 -6 -52 -20 -8 -11 -22 -20 -32 -20 -11 0 -18 7 -18 20 0 11 5 20 10 20 6 0 10 14 10 30 0 23 -4 30 -20 30 -11 0 -20 5 -20 10 0 6 -9 10 -20 10 -11 0 -20 5 -20 10 0 6 -8 10 -18 10 -10 0 -24 9 -32 20 -8 11 -22 20 -32 20 -10 0 -18 5 -18 10 0 6 -8 10 -18 10 -10 0 -24 9 -32 20 -8 11 -22 20 -32 20 -10 0 -18 5 -18 10 0 6 -9 10 -19 10 -11 0 -21 6 -24 13 -3 8 -11 5 -24 -10 -28 -31 -33 -29 -33 12 0 27 -8 44 -35 70 -19 19 -40 35 -47 35 -8 0 -20 9 -28 20 -8 11 -21 20 -30 20 -9 0 -22 9 -30 20 -8 11 -21 20 -30 20 -9 0 -22 9 -30 20 -8 11 -20 20 -28 20 -17 0 -42 25 -42 42 0 8 9 20 20 28 11 8 20 21 20 30 0 9 9 22 20 30 11 8 20 20 20 28 0 7 27 40 61 73 l61 60 -21 18 c-30 26 -27 31 25 31 44 0 74 16 74 40 0 15 25 40 40 40 6 0 33 23 60 50 27 28 55 50 62 50 8 0 20 9 28 20 8 11 21 20 30 20 9 0 22 9 30 20 8 11 21 20 30 20 9 0 22 9 30 20 8 11 21 20 30 20 9 0 22 9 30 20 8 11 21 20 30 20 9 0 22 9 30 20 8 11 21 20 30 20 9 0 22 9 30 20 8 11 22 20 32 20 10 0 18 5 18 10 0 6 8 10 18 10 10 0 24 9 32 20 8 11 21 20 30 20 9 0 22 9 30 20 8 11 22 20 32 20 10 0 18 5 18 10 0 6 8 10 18 10 10 0 24 9 32 20 8 11 22 20 32 20 10 0 18 5 18 10 0 6 7 10 16 10 8 0 22 6 30 14 16 17 19 46 4 46 -5 0 -10 9 -10 20 0 11 -4 20 -10 20 -5 0 -10 14 -10 30 0 17 -4 30 -10 30 -5 0 -10 9 -10 20 0 11 -4 20 -10 20 -5 0 -10 14 -10 30 0 17 -4 30 -10 30 -5 0 -10 9 -10 20 0 11 -4 20 -10 20 -5 0 -10 14 -10 30 0 17 -4 30 -10 30 -5 0 -10 9 -10 20 0 17 -7 20 -40 20 -22 0 -40 -4 -40 -10 0 -5 -9 -10 -20 -10 -11 0 -20 -4 -20 -10 0 -5 -9 -10 -20 -10 -11 0 -20 -4 -20 -10 0 -5 -8 -10 -18 -10 -10 0 -24 -9 -32 -20 -8 -11 -21 -20 -30 -20 -9 0 -22 -9 -30 -20 -8 -11 -21 -20 -30 -20 -9 0 -22 -9 -30 -20 -8 -11 -21 -20 -30 -20 -9 0 -22 -9 -30 -20 -8 -11 -21 -20 -30 -20 -9 0 -22 -9 -30 -20 -8 -11 -20 -20 -28 -20 -24 0 -42 -28 -42 -64 0 -20 5 -36 10 -36 6 0 10 -4 10 -10 0 -5 -20 -10 -45 -10 -52 0 -95 -32 -95 -70 0 -20 -21 -50 -34 -50 -3 0 -6 9 -6 20 0 11 -4 20 -10 20 -5 0 -10 9 -10 20 0 11 -4 20 -10 20 -5 0 -10 -4 -10 -10 0 -5 -7 -10 -15 -10 -20 0 -225 -205 -225 -225 0 -8 9 -15 20 -15 13 0 20 -7 20 -20 0 -17 -7 -20 -46 -20 -42 0 -49 -4 -104 -60 -32 -33 -61 -60 -64 -60 -4 0 -6 54 -6 120 0 73 4 120 10 120 6 0 10 103 10 290 0 283 0 290 -20 290 -11 0 -20 -4 -20 -10 0 -6 -33 -10 -80 -10 -47 0 -80 -4 -80 -10 0 -6 -27 -10 -60 -10 -33 0 -60 4 -60 10 0 6 -13 10 -30 10 -16 0 -30 5 -30 10 0 6 -13 10 -30 10 -16 0 -30 5 -30 10 0 6 -13 10 -30 10 -16 0 -30 5 -30 10 0 6 -9 10 -20 10 -19 0 -20 -7 -20 -150 0 -93 4 -150 10 -150 6 0 10 -53 10 -140 0 -133 1 -140 20 -140 13 0 20 -7 20 -20 0 -11 -4 -20 -10 -20 -6 0 -10 -40 -10 -100 l0 -100 50 0 c28 0 50 -4 50 -10 0 -5 23 -10 50 -10 28 0 50 -4 50 -10 0 -5 -18 -10 -40 -10 -22 0 -40 -4 -40 -10 0 -5 -18 -10 -40 -10 -22 0 -40 -4 -40 -10 0 -5 -18 -10 -40 -10 l-40 0 0 -40 c0 -22 -4 -40 -10 -40 -7 0 -10 -277 -10 -810 0 -533 -3 -810 -10 -810 -5 0 -10 -7 -10 -16 0 -8 -7 -22 -15 -30 -13 -13 -18 -12 -40 10 -19 19 -25 35 -25 71 0 38 -3 45 -20 45 -11 0 -20 5 -20 10 0 6 -13 10 -30 10 -16 0 -30 5 -30 10 0 6 -13 10 -30 10 -23 0 -30 -4 -30 -20 0 -26 -31 -26 -50 0 -8 12 -26 20 -42 20 -34 0 -38 28 -8 50 12 8 20 26 20 42 0 21 -5 28 -20 28 -11 0 -20 5 -20 10 0 15 -49 12 -66 -4 -8 -8 -14 -22 -14 -30 0 -9 -4 -16 -10 -16 -5 0 -10 -9 -10 -20 0 -11 -4 -20 -10 -20 -5 0 -10 -13 -10 -30 0 -16 -4 -30 -10 -30 -5 0 -10 -22 -10 -50 0 -43 3 -50 20 -50 11 0 20 -4 20 -10 0 -5 9 -10 20 -10 11 0 20 -4 20 -10 0 -5 9 -10 20 -10 11 0 20 -4 20 -10 0 -5 9 -10 20 -10 11 0 20 -4 20 -10 0 -5 14 -10 30 -10 17 0 30 -4 30 -10 0 -5 9 -10 20 -10 11 0 20 -4 20 -10 0 -5 18 -10 40 -10 22 0 40 -4 40 -10 0 -5 9 -10 20 -10 11 0 20 -4 20 -10 0 -5 9 -10 20 -10 11 0 20 -4 20 -10 0 -5 14 -10 30 -10 17 0 30 -4 30 -10 0 -5 14 -10 30 -10 17 0 30 -4 30 -10 0 -5 23 -10 50 -10 28 0 50 -4 50 -10 0 -5 23 -10 50 -10 28 0 50 -4 50 -10 0 -6 30 -10 70 -10 40 0 70 -4 70 -10 0 -6 37 -10 90 -10 l90 0 0 170 0 170 -150 0 c-93 0 -150 4 -150 10 0 6 9 10 20 10 11 0 20 5 20 10 0 6 18 10 40 10 22 0 40 5 40 10 0 6 18 10 40 10 22 0 40 5 40 10 0 6 16 10 36 10 49 0 64 19 64 80 0 41 -5 56 -25 75 -13 14 -31 25 -40 25 -8 0 -15 5 -15 10 0 6 -13 10 -30 10 -16 0 -30 5 -30 10 0 6 -9 10 -20 10 -11 0 -20 5 -20 10 0 6 33 10 80 10 l80 0 0 310 c0 171 4 310 8 310 4 0 14 -9 22 -20 8 -11 21 -20 30 -20 9 0 22 -9 30 -20 8 -11 21 -20 28 -20 8 0 27 -13 42 -30 15 -16 34 -30 42 -30 7 0 20 -9 28 -20 8 -11 21 -20 30 -20 9 0 22 -9 30 -20 8 -11 21 -20 28 -20 8 0 27 -13 42 -30 15 -16 35 -30 44 -30 9 0 16 -4 16 -10 0 -15 97 -13 102 2 5 15 98 -75 98 -95 0 -7 9 -19 20 -27 11 -8 20 -22 20 -32 0 -11 7 -18 20 -18 11 0 20 -4 20 -10 0 -5 9 -10 20 -10 11 0 20 -4 20 -10 0 -5 9 -10 20 -10 11 0 20 -4 20 -10 0 -5 9 -10 20 -10 11 0 20 -4 20 -10 0 -5 8 -10 18 -10 10 0 24 -9 32 -20 8 -11 22 -20 32 -20 10 0 18 -4 18 -10 0 -5 9 -10 20 -10 11 0 20 -4 20 -10 0 -5 9 -10 19 -10 11 0 21 -6 23 -12 6 -17 38 14 38 36 0 9 5 16 10 16 6 0 10 -9 10 -20 0 -11 5 -20 10 -20 6 0 10 -12 10 -26 0 -14 6 -32 14 -40 17 -16 66 -19 66 -4 0 18 35 11 50 -10 16 -23 84 -28 94 -7 5 9 7 9 12 0 3 -7 12 -13 20 -13 9 0 37 -22 64 -50 54 -55 68 -60 90 -30 8 11 21 20 28 20 7 0 31 18 52 40 21 22 43 40 49 40 6 0 54 43 106 95 84 84 95 99 95 130 0 19 -4 35 -10 35 -17 0 -12 109 5 127 14 14 18 13 34 -6 10 -12 26 -21 35 -21 9 0 16 -4 16 -10 0 -18 31 -10 55 15 14 13 25 31 25 40 0 8 5 15 10 15 6 0 10 8 10 18 0 10 9 24 20 32 11 8 20 21 20 30 0 9 9 22 20 30 11 8 20 21 20 30 0 9 9 22 20 30 11 8 20 22 20 32 0 10 5 18 10 18 6 0 10 9 10 20 0 11 5 20 10 20 6 0 10 9 10 20 0 11 5 20 10 20 6 0 10 9 10 20 0 11 5 20 10 20 6 0 10 9 10 20 0 11 5 20 10 20 6 0 10 9 10 20 0 11 5 20 10 20 6 0 10 18 10 40 0 22 -4 40 -10 40 -5 0 -10 9 -10 20 0 12 7 20 16 20 20 0 44 24 44 44 0 9 5 16 10 16 6 0 10 18 10 40 0 22 5 40 10 40 6 0 10 18 10 40 0 22 5 40 10 40 6 0 10 18 10 40 0 22 5 40 10 40 6 0 10 22 10 48 0 36 -5 51 -20 62 -28 20 -25 37 10 70 17 15 30 35 30 44 0 9 5 16 10 16 6 0 10 27 10 60 0 33 4 60 10 60 15 0 13 157 -2 164 -10 5 -10 7 0 12 14 7 17 64 2 64 -5 0 -10 14 -10 30 0 17 5 30 10 30 6 0 10 9 10 20 0 11 -4 20 -10 20 -6 0 -10 30 -10 70 0 40 -4 70 -10 70 -5 0 -10 7 -10 16 0 30 -27 44 -84 44 -31 0 -56 5 -56 10 0 6 -13 10 -30 10 -16 0 -30 5 -30 10 0 6 -9 10 -20 10 -11 0 -20 5 -20 10 0 6 -7 10 -16 10 -15 0 -44 23 -44 34 0 3 9 6 20 6 11 0 20 5 20 10 0 6 17 10 38 10 26 0 42 -6 52 -20 8 -11 22 -20 32 -20 10 0 18 -4 18 -10 0 -5 23 -10 50 -10 l50 0 0 40 c0 22 -4 40 -10 40 -6 0 -10 27 -10 60 0 33 -4 60 -10 60 -5 0 -10 9 -10 20 0 19 -7 20 -210 20 -203 0 -210 -1 -210 -20z m460 -390 c0 -5 -9 -10 -20 -10 -11 0 -20 5 -20 10 0 6 9 10 20 10 11 0 20 -4 20 -10z m-2460 -90 l0 -40 -40 0 c-22 0 -40 5 -40 10 0 6 -9 10 -20 10 -11 0 -20 5 -20 10 0 6 -9 10 -20 10 -11 0 -20 5 -20 10 0 6 -9 10 -20 10 -11 0 -20 5 -20 10 0 6 40 10 100 10 l100 0 0 -40z m2446 -34 c21 -22 17 -26 -26 -26 -33 0 -40 -3 -40 -20 0 -11 -4 -20 -10 -20 -5 0 -10 -11 -10 -25 0 -16 -13 -39 -35 -61 l-35 -35 -25 25 c-17 17 -25 36 -25 58 0 22 -7 39 -20 48 -12 8 -20 26 -20 42 l0 28 116 0 c87 0 119 -4 130 -14z m-2246 -615 c0 -16 6 -32 13 -35 10 -5 10 -7 0 -12 -7 -3 -13 -14 -13 -25 0 -23 -6 -24 -28 -2 -12 12 -13 18 -4 21 16 5 16 39 0 44 -9 3 -8 9 2 21 22 24 30 21 30 -12z m-900 -1591 c0 -13 -7 -20 -20 -20 -13 0 -20 7 -20 20 0 13 7 20 20 20 13 0 20 -7 20 -20z m140 -70 c0 -23 -4 -30 -20 -30 -16 0 -20 7 -20 30 0 23 4 30 20 30 16 0 20 -7 20 -30z"/>
 <path d="M3960 2950 c0 -5 -7 -10 -15 -10 -14 0 -85 -62 -85 -75 0 -3 45 -5 100 -5 60 0 100 4 100 10 0 6 7 10 16 10 20 0 44 24 44 44 0 11 -9 16 -30 16 -16 0 -30 5 -30 10 0 6 -22 10 -50 10 -27 0 -50 -4 -50 -10z"/>
 <path d="M4400 490 c0 -5 -9 -10 -20 -10 -26 0 -26 -28 1 -51 l21 -18 -41 -40 c-46 -44 -57 -91 -21 -91 11 0 20 5 20 10 0 6 9 10 20 10 11 0 20 5 20 10 0 6 8 10 18 10 10 0 24 9 32 20 8 11 22 20 32 20 10 0 18 5 18 10 0 6 7 10 16 10 8 0 22 6 30 14 21 21 17 46 -6 46 -11 0 -20 5 -20 10 0 6 -8 10 -18 10 -10 0 -24 9 -32 20 -15 21 -70 28 -70 10z"/>
 </g>

</svg>